PathFileType	4	(X/Y/Z)	s01c0301.trc
DataRate	CameraRate	NumFrames	NumMarkers	Units	OrigDataRate	OrigDataStartFrame	OrigNumFrames
200	200	4	48	mm	200	1750	2000
Frame#	Time	racr			lacr			c7			jug			rlel			rdr			llel			ldr			s2			lic			ric			lasi			rasi			rpsi			lpsi			rgt			lgt			rth1			rth2			rth3			rth4			rlfc			rsh1			rsh2			rsh3			rsh4			rlmal			rmmal			rcal			rtoe			rmt5			lth1			lth2			lth4			lth3			llfc			lsh1			lsh2			lsh3			lsh4			llmal			lmmal			lcal			ltoe			lmt5			SBIKE			LBIKE			RBIKE			
		X1	Y1	Z1	X2	Y2	Z2	X3	Y3	Z3	X4	Y4	Z4	X5	Y5	Z5	X6	Y6	Z6	X7	Y7	Z7	X8	Y8	Z8	X9	Y9	Z9	X10	Y10	Z10	X11	Y11	Z11	X12	Y12	Z12	X13	Y13	Z13	X14	Y14	Z14	X15	Y15	Z15	X16	Y16	Z16	X17	Y17	Z17	X18	Y18	Z18	X19	Y19	Z19	X20	Y20	Z20	X21	Y21	Z21	X22	Y22	Z22	X23	Y23	Z23	X24	Y24	Z24	X25	Y25	Z25	X26	Y26	Z26	X27	Y27	Z27	X28	Y28	Z28	X29	Y29	Z29	X30	Y30	Z30	X31	Y31	Z31	X32	Y32	Z32	X33	Y33	Z33	X34	Y34	Z34	X35	Y35	Z35	X36	Y36	Z36	X37	Y37	Z37	X38	Y38	Z38	X39	Y39	Z39	X40	Y40	Z40	X41	Y41	Z41	X42	Y42	Z42	X43	Y43	Z43	X44	Y44	Z44	X45	Y45	Z45	X46	Y46	Z46	X47	Y47	Z47	X48	Y48	Z48	
1750	8.7500	699.863464	1383.569336	-90.716927	732.019592	1349.313354	-430.155304	687.308838	1443.781738	-258.973236	682.900330	1278.136475	-256.666565	661.486145	1097.250977	-5.673015	735.639832	849.411804	-65.618935	638.073975	1079.162231	-526.563904	743.213684	849.741760	-404.026093	162.873001	1205.409058	-235.291931	317.317047	1206.208496	-422.766479	342.548920	1195.760254	-105.155029	308.976349	1148.079346	-403.163574	361.657410	1147.648926	-140.691391	201.892838	1238.939087	-187.734985	185.716751	1243.570557	-293.965454	295.506653	1096.941528	-62.769859	214.130737	1064.402222	-437.546631	397.092468	1017.838440	-61.588455	471.415649	981.610229	-71.926102	547.762207	935.965271	-90.575813	494.297943	1027.670532	-95.450409	606.860352	850.328125	-121.375801	508.837250	796.502625	-84.317390	439.655334	748.156494	-83.140884	361.648773	704.876892	-87.586670	463.963776	707.075623	-119.272812	250.580124	647.698059	-97.871918	282.265747	625.042542	-178.487762	198.837952	664.269409	-151.447784	337.431854	430.438507	-134.794052	255.124298	501.479919	-67.206726	225.774368	934.775574	-445.037537	262.649445	853.452026	-445.332550	312.780640	875.095398	-451.316620	292.069519	774.832947	-429.073151	320.432678	661.714600	-415.945953	257.325226	566.641663	-445.692505	234.312195	482.855316	-439.041718	210.008438	401.370697	-424.468140	290.715057	469.858826	-417.046234	174.116333	280.946503	-406.268860	242.765457	168.158737	-341.890106	124.253349	267.603760	-364.557068	370.142120	139.614700	-372.204193	265.228760	160.938156	-438.072388	-223.342545	893.370239	-249.659393	-11.971092	84.731628	-453.846710	-20.103775	81.090378	-53.600063	
1751	8.7550	699.801941	1383.987549	-91.405983	731.809143	1349.801147	-429.982941	686.893005	1444.134888	-259.283722	682.482178	1278.537476	-257.177673	662.135376	1097.606079	-6.314611	735.658997	849.414124	-65.685219	638.537231	1079.470825	-526.203247	743.255615	849.676514	-403.948608	162.493591	1205.515991	-236.043060	316.636902	1205.696167	-422.225861	342.215515	1195.962280	-105.629066	308.697510	1148.006104	-403.186279	361.187592	1147.466064	-140.882629	201.546951	1239.189453	-187.870575	185.255890	1243.705200	-294.172302	295.173462	1096.733154	-63.198769	213.749344	1064.440796	-437.772552	396.212769	1016.803284	-61.450253	470.201996	980.026306	-71.869347	546.188599	933.675110	-90.483185	493.451813	1025.856323	-95.380150	604.376465	847.706482	-121.016350	505.817993	794.603271	-84.330650	436.447906	746.567688	-83.175270	358.352600	703.425476	-87.734573	460.896790	705.178223	-119.051231	247.369614	646.723572	-98.225990	279.240936	623.505615	-178.811188	196.070847	663.984680	-152.070862	331.990967	428.651672	-134.661118	250.343124	500.742493	-67.333389	225.889313	934.919312	-445.374542	262.893158	853.640747	-445.525757	312.945557	875.452454	-451.565552	292.508423	775.173767	-429.089020	321.319489	661.779968	-415.783630	258.376160	566.381409	-445.461609	235.852097	482.520721	-438.642395	211.974701	401.018127	-423.873230	292.381317	469.919281	-416.823242	176.855911	280.368896	-405.439423	240.506317	167.428314	-341.854553	127.410751	266.285095	-363.421967	374.795532	141.442825	-372.610809	269.294128	161.445267	-437.916595	-223.343719	893.372742	-249.692032	-11.984618	84.718704	-453.831360	-20.088446	81.082283	-53.592644	
1752	8.7600	699.657776	1384.232544	-92.032974	731.535706	1350.265991	-429.836975	686.372375	1444.476440	-259.636047	682.152039	1278.973145	-257.465149	662.710754	1097.852783	-6.999557	735.676086	849.327271	-65.728928	639.025391	1079.737427	-525.909241	743.301880	849.616516	-403.909454	162.052658	1205.805664	-235.558060	316.526825	1205.020264	-422.135986	341.815277	1196.130737	-106.004913	308.501648	1147.959351	-403.246582	360.624176	1147.177979	-141.088257	201.059555	1239.398438	-188.028885	184.748077	1243.744995	-294.439667	294.699615	1096.407593	-63.611229	213.632385	1064.408325	-438.083160	395.291138	1015.675171	-61.300678	468.957336	978.287720	-71.820503	544.506165	931.366211	-90.351059	492.559143	1023.943909	-95.272087	601.659180	844.865723	-120.146744	502.867645	792.323303	-84.266205	433.245239	744.559082	-83.160950	355.093658	701.515442	-87.841324	457.715576	702.973755	-118.864410	244.204941	645.578796	-98.465729	276.721588	622.143799	-179.257599	193.314987	663.568848	-152.440613	326.514374	426.772186	-134.885742	245.904327	499.913452	-67.445007	226.324463	935.001343	-445.800537	263.523560	853.830505	-445.814880	313.609741	875.787292	-451.717957	293.362610	775.458801	-429.157867	322.459961	661.921204	-415.544342	259.495361	566.307007	-445.214081	237.412552	482.295929	-438.242188	214.018860	400.743622	-423.404419	294.070801	470.016602	-416.516327	179.498459	279.798309	-404.405731	238.256546	166.801239	-341.812958	130.349960	265.247375	-362.278076	379.129333	143.248566	-372.952179	273.008270	162.081573	-437.757904	-223.350769	893.359131	-249.713181	-11.998167	84.709412	-453.837433	-20.113792	81.095566	-53.597122	
1753	8.7650	699.480713	1384.431030	-92.530830	731.261169	1350.733398	-429.682526	685.860046	1444.837402	-259.957001	681.824890	1279.525269	-257.783661	663.190613	1098.112183	-7.672204	735.692505	849.258850	-65.763397	639.488281	1080.027100	-525.681946	743.325745	849.611023	-403.910980	161.581482	1205.803833	-236.041748	316.393219	1204.084473	-422.077179	341.344757	1196.202393	-106.311806	308.297760	1147.913818	-403.339081	359.991882	1146.778198	-141.200623	200.545898	1239.484863	-188.240692	184.269226	1243.733521	-294.670898	294.143341	1095.991089	-63.950100	213.775070	1064.344116	-438.443787	394.240540	1014.433472	-61.109741	467.584198	976.477661	-71.676414	542.799744	928.958557	-90.265671	491.570587	1021.927795	-95.150368	599.310486	842.035400	-119.971237	499.792786	789.851868	-84.066414	430.153503	742.241577	-83.035255	351.890625	699.252869	-87.914673	454.538971	700.609619	-118.806534	240.198135	645.393921	-96.953316	273.480408	620.427856	-179.512665	190.359344	662.972229	-152.896957	321.969757	425.417908	-134.711746	241.753250	499.133270	-67.525490	227.082611	935.015198	-446.310760	264.606476	853.979553	-446.219666	314.715240	876.076904	-451.767212	294.611023	775.700684	-429.353577	323.749817	662.060974	-415.302185	260.728821	566.325806	-444.970581	238.963531	482.254242	-437.870331	215.900955	400.615601	-422.820831	295.741547	470.187225	-416.211365	181.904495	279.514771	-403.345367	236.017014	166.274918	-341.765564	133.130386	264.311127	-361.175293	383.046661	144.911758	-373.164825	276.523224	162.799072	-437.470459	-223.364990	893.351074	-249.735046	-11.999296	84.680573	-453.806671	-20.106131	81.062485	-53.587475	
